<?xml version="1.0"?>
<svg width="960" height="960" xmlns="http://www.w3.org/2000/svg" xmlns:svg="http://www.w3.org/2000/svg">
 <g class="layer">
  <title>Layer 1</title>
  <path d="m242.24,871.13l0,40q0,17 -11.5,28.5t-28.5,11.5l-40,0q-17,0 -28.5,-11.5t-11.5,-28.5l0,-320l84,-240q6,-18 21.5,-29t34.5,-11l440,0q19,0 34.5,11t21.5,29l84,240l0,320q0,17 -11.5,28.5t-28.5,11.5l-40,0q-17,0 -28.5,-11.5t-11.5,-28.5l0,-40l-480,0zm-8,-360l496,0l-42,-120l-412,0l-42,120zm-32,80l0,200l0,-200zm100,160q25,0 42.5,-17.5t17.5,-42.5q0,-25 -17.5,-42.5t-42.5,-17.5q-25,0 -42.5,17.5t-17.5,42.5q0,25 17.5,42.5t42.5,17.5zm360,0q25,0 42.5,-17.5t17.5,-42.5q0,-25 -17.5,-42.5t-42.5,-17.5q-25,0 -42.5,17.5t-17.5,42.5q0,25 17.5,42.5t42.5,17.5zm-460,40l560,0l0,-200l-560,0l0,200z" id="svg_1"/>
  <path d="m103.34,297.93l113.14,-275.83l98.77,272.53l-264.62,-181.69l324.32,-10.26l-271.62,194.88l0,0.37z" fill="#000000" id="svg_3" transform="matrix(1 0 0 1 0 0)"/>
 </g>
</svg>