<?xml version="1.0"?>
<svg width="960" height="960" xmlns="http://www.w3.org/2000/svg" xmlns:svg="http://www.w3.org/2000/svg">
 <g class="layer">
  <title>Layer 1</title>
  <path d="m160,892q-66,0 -113,-47t-47,-113q0,-57 36.5,-101t93.5,-55l-28,-24l-102,0l0,-60l180,0l100,60l160,-60l126,0l-62,-80l-104,0l0,-80l142,0l84,108l134,-68l0,120l-92,0l70,92q15,-6 30.5,-9t31.5,-3q66,0 113,47t47,113q0,66 -47,113t-113,47q-66,0 -113,-47t-47,-113q0,-27 9.5,-52.5t26.5,-47.5l-20,-24l-136,204l-120,0l-80,-70q-5,63 -51,106.5t-109,43.5zm0,-80q33,0 56.5,-23.5t23.5,-56.5q0,-33 -23.5,-56.5t-56.5,-23.5q-33,0 -56.5,23.5t-23.5,56.5q0,33 23.5,56.5t56.5,23.5zm294,-240l-144,54l144,-54l130,0l-130,0zm346,240q33,0 56.5,-23.5t23.5,-56.5q0,-33 -23.5,-56.5t-56.5,-23.5q-33,0 -56.5,23.5t-23.5,56.5q0,33 23.5,56.5t56.5,23.5zm-322,-80l106,-160l-130,0l-144,54l120,106l48,0z" id="svg_1"/>
  <polygon cx="64" cy="-798" id="svg_2" orient="point" point="5" points="176.00001525878906,5.280517578125 212.00482177734375,135.84271240234375 350.77099609375,128.80902099609375 234.25701904296875,202.4671630859375 284.0144348144531,328.682373046875 176.00001525878906,243.64337158203125 67.985595703125,328.682373046875 117.7430191040039,202.4671630859375 1.2290172576904297,128.80902099609375 139.99520874023438,135.84271240234375 176.00001525878906,5.280517578125 212.00482177734375,135.84271240234375 " r="366.72" r2="122.24" radialshift="0" shape="star" starRadiusMultiplier="3" stroke-width="NaN" transform="matrix(1 0 0 1 0 0)"/>
 </g>
</svg>