<?xml version="1.0"?>
<svg width="960" height="960" xmlns="http://www.w3.org/2000/svg" xmlns:svg="http://www.w3.org/2000/svg">
 <g class="layer">
  <title>Layer 1</title>
  <path d="m242,902q-50,0 -85,-35t-35,-85l-80,0l0,-360q0,-33 23.5,-56.5t56.5,-23.5l560,0l240,240l0,200l-80,0q0,50 -35,85t-85,35q-50,0 -85,-35t-35,-85l-240,0q0,50 -35,85t-85,35zm360,-360l160,0l-120,-120l-40,0l0,120zm-240,0l160,0l0,-120l-160,0l0,120zm-240,0l160,0l0,-120l-160,0l0,120zm120,290q21,0 35.5,-14.5t14.5,-35.5q0,-21 -14.5,-35.5t-35.5,-14.5q-21,0 -35.5,14.5t-14.5,35.5q0,21 14.5,35.5t35.5,14.5zm480,0q21,0 35.5,-14.5t14.5,-35.5q0,-21 -14.5,-35.5t-35.5,-14.5q-21,0 -35.5,14.5t-14.5,35.5q0,21 14.5,35.5t35.5,14.5zm-600,-130l32,0q17,-18 39,-29t49,-11q27,0 49,11t39,29l304,0q17,-18 39,-29t49,-11q27,0 49,11t39,29l32,0l0,-80l-720,0l0,80zm720,-80l-720,0l720,0z" id="svg_1"/>
  <polygon cx="64" cy="-798" id="svg_3" orient="point" point="5" points="178,2.299072265625 214.0048828125,132.86126708984375 352.77099609375,125.82757568359375 236.257080078125,199.4857177734375 286.014404296875,325.700927734375 178,240.66192626953125 69.985595703125,325.700927734375 119.742919921875,199.4857177734375 3.22900390625,125.82757568359375 141.9951171875,132.86126708984375 178,2.299072265625 214.0048828125,132.86126708984375 " r="366.72" r2="122.24" radialshift="0" shape="star" starRadiusMultiplier="3" stroke-width="NaN"/>
 </g>
</svg>